<?xml version="1.0" standalone="no"?>
<!DOCTYPE svg PUBLIC "-//W3C//DTD SVG 20010904//EN"
 "http://www.w3.org/TR/2001/REC-SVG-20010904/DTD/svg10.dtd">
<svg version="1.0" xmlns="http://www.w3.org/2000/svg"
 width="512.000000pt" height="512.000000pt" viewBox="0 0 512.000000 512.000000"
 preserveAspectRatio="xMidYMid meet">
<metadata>
Created by potrace 1.16, written by Peter Selinger 2001-2019
</metadata>
<g transform="translate(0.000000,512.000000) scale(0.100000,-0.100000)"
fill="#ffffff" stroke="none">
<path d="M2325 4330 c-80 -19 -150 -66 -187 -125 l-20 -30 7 30 c4 16 3 27 -1
22 -4 -4 -10 -26 -13 -49 -5 -37 -10 -43 -38 -50 -40 -10 -87 -67 -103 -124
-19 -67 -8 -153 28 -219 30 -56 31 -56 11 -76 -27 -27 -29 -111 -3 -160 20
-39 72 -79 103 -79 24 0 30 -7 51 -57 15 -37 45 -79 82 -117 l58 -60 0 -78 c0
-59 -3 -78 -14 -78 -7 0 -28 -10 -47 -23 -19 -12 -90 -39 -159 -61 -68 -21
-141 -46 -161 -57 -53 -27 -111 -120 -151 -240 -32 -99 -34 -102 -78 -124 -25
-13 -55 -34 -67 -47 -47 -50 -51 -74 -58 -424 -8 -355 -6 -381 40 -424 22 -20
25 -32 25 -87 l0 -63 -77 0 c-164 -1 -274 -45 -313 -125 -17 -36 -21 -56 -16
-88 17 -105 110 -175 350 -262 l79 -29 -46 -13 c-67 -19 -107 -61 -107 -111 0
-28 7 -49 25 -70 l24 -29 -382 -8 c-1054 -21 -440 -35 1467 -34 771 1 1523 4
1671 8 l270 6 -215 7 c-118 5 -348 11 -510 14 l-295 7 37 37 c35 34 38 42 38
92 0 68 -27 113 -87 142 -23 12 -42 24 -43 27 0 3 33 20 74 38 107 47 158 103
172 188 12 78 -43 149 -136 173 -75 19 -80 21 -80 33 0 8 -16 11 -47 9 -38 -2
-44 0 -30 8 9 6 17 16 17 22 0 6 6 19 14 27 19 23 131 599 123 633 -4 15 -17
33 -30 39 -33 18 -1259 27 -1311 9 -56 -18 -64 -39 -72 -180 l-7 -125 -31 -1
c-17 0 -59 -4 -93 -8 l-63 -9 0 66 c0 36 5 134 11 218 12 177 3 252 -42 344
-16 33 -26 51 -22 40 16 -45 14 -236 -3 -387 l-17 -157 -25 19 c-40 32 -86 35
-155 10 -34 -12 -70 -29 -79 -38 -15 -12 -18 -13 -18 -1 0 45 162 610 201 700
25 58 85 102 208 154 l84 36 44 -50 c28 -33 67 -61 109 -82 57 -28 76 -33 142
-32 107 0 179 29 251 101 l55 55 103 -52 103 -52 -21 -41 c-26 -51 -65 -231
-78 -367 -16 -150 -18 -141 32 -141 l42 0 18 60 c9 33 31 75 47 94 35 39 37
46 12 46 -10 0 -37 -18 -60 -41 l-43 -40 7 68 c13 134 42 315 52 325 7 7 17
-2 31 -30 20 -40 98 -233 140 -349 22 -59 57 -110 68 -99 22 21 -182 469 -238
525 -31 31 -181 111 -208 111 -6 0 -11 5 -11 10 0 6 -6 10 -12 10 -7 1 -26 7
-43 15 l-30 15 35 -6 c19 -3 52 -14 73 -25 21 -11 35 -14 31 -8 -10 17 -82 46
-146 59 -65 13 -82 36 -20 26 30 -4 39 -2 39 9 0 8 -4 12 -9 9 -5 -3 -25 -3
-45 1 l-35 6 6 70 c7 67 9 71 56 115 45 42 110 148 110 179 0 7 16 16 36 19
68 13 121 136 90 210 -8 20 -22 39 -30 42 -12 5 -11 13 6 51 11 25 22 72 23
104 2 32 11 69 19 81 29 42 16 49 -21 12 -20 -20 -61 -48 -91 -62 -49 -22 -64
-24 -141 -19 -88 5 -188 35 -211 62 -16 19 -1 19 25 1 40 -27 131 -50 200 -50
60 -1 80 4 137 32 67 33 99 68 113 122 6 24 5 25 -38 22 -40 -3 -48 0 -87 36
-43 42 -45 57 -7 71 18 7 13 12 -40 44 -97 59 -213 81 -278 53 -30 -13 -30
-13 29 -20 78 -10 253 -64 211 -66 l-30 -1 26 -19 c15 -11 39 -37 54 -57 19
-27 8 -19 -35 24 -69 70 -126 95 -255 108 l-70 8 69 33 c37 18 71 35 74 38 8
9 -168 5 -203 -4z m-18 -134 c-56 -27 -92 -58 -118 -101 -22 -35 -25 -26 -5
13 20 37 64 78 106 96 56 24 70 18 17 -8z m163 -63 c25 -13 66 -38 91 -54 64
-42 117 -48 166 -19 37 22 37 22 19 1 -46 -51 -138 -43 -215 18 -64 51 -126
74 -185 68 -28 -2 -60 -8 -71 -12 -11 -5 -17 -5 -13 -1 3 4 24 14 45 22 48 17
103 9 163 -23z m-422 -70 c-57 -60 -58 -162 -3 -283 22 -47 22 -52 5 -32 -26
31 -60 143 -60 196 0 48 30 119 57 135 29 17 29 13 1 -16z m627 -73 c28 1 73
9 102 19 58 20 62 9 6 -14 -72 -30 -231 -9 -257 34 -4 6 17 -1 46 -14 35 -16
70 -25 103 -25z m-417 -9 c76 -40 172 -81 191 -81 12 0 30 -4 40 -10 34 -18
154 -31 202 -22 l47 9 6 -66 c19 -188 22 -206 30 -186 35 92 51 104 80 63 22
-31 20 -64 -8 -125 -26 -54 -55 -78 -85 -68 -14 4 -23 -7 -46 -62 -33 -77
-120 -174 -179 -198 -59 -25 -135 -19 -187 13 -70 45 -145 134 -170 202 -12
33 -23 60 -25 60 -3 0 -13 -6 -24 -12 -26 -17 -65 4 -97 51 -42 61 -26 176 21
158 18 -7 42 -43 51 -77 l6 -25 -25 28 c-14 15 -30 27 -36 27 -13 0 -13 -50 0
-70 7 -10 8 -3 5 24 l-5 40 27 -37 c16 -20 31 -36 35 -37 4 0 10 26 13 58 4
31 20 89 35 129 32 80 52 175 43 199 -4 12 5 9 34 -10 22 -15 58 -29 79 -32
l39 -5 -43 20 c-46 22 -91 51 -79 51 4 0 15 -4 25 -9z m152 -36 c13 -14 21
-25 18 -25 -2 0 -15 11 -28 25 -13 14 -21 25 -18 25 2 0 15 -11 28 -25z m-302
-240 l0 -30 -8 30 c-4 17 -8 41 -8 55 l0 25 8 -25 c4 -14 8 -38 8 -55z m309
-565 c43 -10 56 -9 81 4 17 9 34 20 37 26 15 24 20 5 22 -76 1 -47 7 -91 13
-99 17 -20 -87 -49 -143 -41 -53 8 -123 48 -118 67 2 8 6 46 9 86 4 70 5 71
26 59 11 -8 44 -19 73 -26z m-131 -119 c-10 -16 55 -69 100 -81 53 -15 151 -7
195 16 25 13 30 20 25 39 -5 19 -3 23 9 19 36 -14 -5 -76 -69 -105 -80 -36
-171 -18 -249 51 -38 33 -49 70 -21 70 8 0 13 -4 10 -9z m-106 -15 c0 -2 -46
-21 -102 -41 -57 -21 -115 -44 -130 -52 -16 -7 -28 -11 -28 -8 0 9 84 48 165
76 83 28 95 32 95 25z m160 -110 c75 -35 148 -35 218 0 47 23 85 58 94 86 3 7
13 6 32 -4 l27 -14 -40 -37 c-51 -46 -128 -85 -191 -97 -98 -19 -227 25 -292
99 l-31 35 29 12 c27 12 32 10 64 -21 19 -19 60 -45 90 -59z m-655 -424 c-19
-39 -42 -97 -49 -129 l-14 -58 -1 73 c-1 41 5 87 13 105 13 31 74 93 83 84 2
-3 -12 -36 -32 -75z m1886 -222 c26 -14 25 -30 -13 -210 -39 -188 -49 -177
-13 16 14 76 23 146 19 156 -5 17 -36 18 -625 18 -694 0 -670 2 -688 -68 -16
-65 -46 -561 -34 -573 13 -13 17 19 38 296 22 290 22 293 49 310 32 21 1229
23 1234 2 3 -12 -85 -517 -90 -523 -2 -1 -39 -14 -83 -29 -44 -14 -112 -44
-152 -66 l-72 -39 -474 0 c-393 0 -476 2 -480 14 -3 7 -2 62 3 122 5 60 14
203 21 317 13 227 20 251 77 260 64 10 1264 7 1283 -3z m-1700 -173 c33 -18
45 -30 47 -51 3 -25 2 -26 -25 -19 -51 14 -126 9 -156 -11 -32 -22 -29 -33 5
-15 22 11 22 11 7 -7 -28 -34 -33 -50 -8 -28 39 35 65 44 121 43 47 -1 49 -2
21 -9 -32 -7 -83 -36 -83 -45 0 -3 12 1 28 9 52 27 88 28 157 7 37 -12 98 -24
136 -27 43 -4 69 -11 69 -19 0 -9 -13 -10 -47 -4 -57 9 -138 1 -175 -17 -55
-28 -75 -95 -43 -141 14 -19 13 -21 -10 -27 -13 -3 -56 -1 -96 4 -147 21 -195
78 -187 226 5 93 10 102 73 133 54 27 112 26 166 -2z m152 -204 c-7 -2 -13 -9
-13 -13 0 -5 16 -2 36 6 21 9 57 14 87 12 l52 -3 -43 -19 c-52 -22 -82 -59
-82 -98 0 -31 -2 -31 -60 -10 -13 5 -13 4 0 -13 14 -18 13 -18 -20 1 -36 21
-47 47 -36 90 6 24 49 54 76 53 10 0 11 -2 3 -6z m1492 -48 c-4 -25 -9 -44
-12 -41 -2 2 -1 25 2 51 4 25 9 44 12 41 2 -2 1 -25 -2 -51z m-1337 -8 c0 -24
-6 -36 -21 -43 -30 -13 -33 -48 -6 -67 11 -9 19 -21 17 -27 -6 -20 -88 47 -88
73 0 32 26 65 63 81 18 8 33 15 34 15 0 1 1 -14 1 -32z m-488 -118 c36 -17 38
-22 46 -110 7 -75 5 -78 -53 -63 -21 6 -23 12 -23 71 0 48 -5 71 -20 91 -11
15 -23 43 -26 62 l-6 35 26 -37 c14 -20 39 -42 56 -49z m490 46 c0 -15 -6 -25
-14 -25 -22 0 -30 19 -16 35 18 22 30 18 30 -10z m1317 -7 c-3 -8 -6 -5 -6 6
-1 11 2 17 5 13 3 -3 4 -12 1 -19z m-10 -70 c-3 -7 -5 -2 -5 12 0 14 2 19 5
13 2 -7 2 -19 0 -25z m-1424 2 c21 0 36 -4 33 -8 -3 -5 -64 -12 -137 -16 -72
-3 -135 -9 -141 -12 -5 -3 7 -35 27 -70 19 -36 35 -66 35 -68 0 -2 -18 1 -39
6 -43 11 -44 12 -56 114 l-6 51 28 -4 c15 -2 62 0 103 6 41 5 84 7 95 5 11 -2
37 -4 58 -4z m60 -37 c-34 -2 -93 -2 -130 0 -37 2 -9 3 62 3 72 0 102 -1 68
-3z m582 -133 c338 0 526 4 530 10 4 6 54 10 118 10 115 0 157 -6 157 -21 0
-26 -51 -37 -185 -43 -87 -4 -132 -3 -120 3 12 6 -184 10 -515 13 l-535 3
-113 42 c-110 41 -142 57 -142 73 0 4 63 -15 141 -41 l141 -49 523 0z m-657
81 c72 -19 100 -31 71 -31 -17 0 -168 48 -154 49 6 0 43 -8 83 -18z m-27 -108
l84 -27 415 2 415 2 -66 -20 c-36 -10 -133 -47 -215 -80 -82 -34 -153 -62
-159 -62 -5 0 -113 36 -238 81 -125 44 -230 81 -233 81 -24 0 -113 33 -109 41
8 13 11 12 106 -18z m1594 -7 c113 -61 111 -190 -3 -254 -75 -42 -276 -102
-387 -116 -49 -6 -48 -5 38 30 48 20 86 38 84 40 -5 5 -117 -13 -416 -67 -221
-40 -276 -48 -283 -37 -18 26 -48 87 -48 97 0 22 554 219 681 242 64 11 71 11
91 -7 16 -13 19 -14 10 -2 -11 14 -7 17 40 23 67 9 98 28 98 60 0 23 3 25 28
19 15 -4 45 -16 67 -28z m-1695 -14 c151 -39 287 -92 269 -103 -8 -5 -11 -9
-7 -9 22 0 368 -95 392 -107 49 -26 43 -27 -324 -93 -124 -22 -274 -52 -335
-67 l-109 -26 -71 18 c-193 50 -373 125 -422 177 -75 80 -34 186 89 230 47 16
74 18 228 14 154 -3 189 -8 290 -34z m1070 -41 c-58 -20 -167 -65 -243 -99
-114 -51 -142 -60 -159 -51 -11 6 -16 14 -12 18 13 11 231 98 344 137 52 18
113 33 135 33 35 0 28 -4 -65 -38z m517 -370 c69 -32 96 -119 53 -174 -38 -48
-95 -58 -316 -55 l-199 3 0 56 0 57 66 6 c36 3 86 13 110 21 24 9 78 22 119
30 74 13 66 20 -20 16 -44 -2 -44 -2 -23 14 63 45 145 55 210 26z m-1691 -87
c70 -28 94 -34 114 -27 14 5 43 5 65 1 22 -5 74 -12 115 -16 69 -6 75 -9 84
-34 5 -15 7 -30 5 -33 -10 -9 -149 -25 -279 -31 -116 -6 -130 -5 -130 9 0 11
12 18 38 22 63 11 60 13 -20 14 -67 1 -80 -2 -98 -21 -19 -21 -21 -21 -38 -4
-16 16 -16 18 11 42 16 14 41 24 60 25 18 0 41 4 52 9 16 7 11 9 -22 9 -50 1
-90 -13 -120 -41 -25 -23 -56 -18 -51 9 5 25 77 63 121 63 20 0 37 5 37 10 0
27 -115 1 -160 -36 -42 -36 -39 -59 13 -85 51 -27 32 -38 -20 -12 -77 37 -77
108 -1 143 65 29 121 25 224 -16z m1059 -25 c4 -17 4 -51 0 -75 l-6 -44 -268
0 -269 0 6 48 c2 26 6 49 8 51 2 3 79 8 172 13 92 4 205 16 252 26 47 10 88
17 92 15 3 -2 10 -17 13 -34z m74 15 c46 -58 8 -164 -44 -126 -6 4 -10 40 -11
80 0 62 2 72 17 72 10 0 27 -12 38 -26z m71 -51 c0 -37 -15 -73 -31 -73 -6 0
-5 8 2 21 6 12 9 39 6 60 -4 29 -2 36 9 32 8 -3 14 -19 14 -40z m-740 -7 c0
-23 -16 -36 -45 -36 -7 0 -15 14 -17 30 -4 28 -3 30 29 30 28 0 33 -3 33 -24z
m-510 -61 c0 -8 -9 -15 -20 -15 -20 0 -26 11 -13 23 12 13 33 7 33 -8z"/>
<path d="M2260 3788 c-55 -29 -68 -55 -16 -33 19 8 56 15 81 15 38 0 45 3 45
20 0 28 -53 27 -110 -2z"/>
<path d="M2554 3796 c-9 -23 -1 -28 46 -32 22 -2 56 -11 75 -19 34 -14 35 -13
25 5 -16 29 -54 51 -99 57 -32 4 -42 2 -47 -11z"/>
<path d="M2257 3692 c-10 -10 -17 -22 -17 -27 0 -5 6 0 14 10 13 18 14 18 9
-8 -7 -33 11 -57 43 -57 45 0 42 71 -4 83 -9 2 -5 4 10 2 15 -1 25 2 22 7 -9
15 -61 8 -77 -10z"/>
<path d="M2580 3691 c-22 -43 -5 -81 37 -81 32 0 44 47 17 67 -10 7 -24 11
-32 8 -7 -2 -10 0 -7 5 11 18 38 11 67 -17 15 -15 28 -22 28 -16 0 18 -50 53
-76 53 -13 0 -28 -9 -34 -19z"/>
<path d="M2801 3651 c-6 -11 -11 -30 -10 -43 1 -19 3 -17 12 10 8 26 14 31 30
26 14 -4 18 -2 15 7 -7 22 -36 22 -47 0z"/>
<path d="M2460 3608 c0 -41 5 -58 20 -71 27 -23 25 -45 -4 -53 -33 -8 -64 3
-68 24 -3 12 -6 14 -11 5 -11 -17 28 -53 56 -53 28 0 67 26 67 46 0 8 -9 22
-20 31 -15 13 -20 30 -20 65 0 26 -4 50 -10 53 -6 4 -10 -14 -10 -47z"/>
<path d="M2071 3553 c7 -12 15 -20 18 -17 3 2 -3 12 -13 22 -17 16 -18 16 -5
-5z"/>
<path d="M2757 3543 c-4 -3 -7 -11 -7 -17 0 -6 5 -5 12 2 6 6 9 14 7 17 -3 3
-9 2 -12 -2z"/>
<path d="M2335 3441 c-8 -14 50 -49 93 -57 43 -8 98 1 129 21 34 23 25 27 -22
10 -70 -25 -154 -15 -182 21 -7 10 -13 11 -18 5z"/>
<path d="M2455 3360 l-40 -7 35 -1 c19 -1 42 3 50 8 16 11 14 11 -45 0z"/>
<path d="M2913 1833 c-39 -41 -83 -44 -118 -8 -14 13 -25 20 -25 14 0 -21 50
-59 77 -59 36 0 89 33 98 60 10 31 4 30 -32 -7z"/>
<path d="M1832 1850 c0 -14 2 -19 5 -12 2 6 2 18 0 25 -3 6 -5 1 -5 -13z"/>
<path d="M1593 1412 c-13 -4 -19 -12 -15 -18 4 -7 40 -11 99 -10 78 1 90 3 79
15 -15 15 -129 24 -163 13z"/>
<path d="M1795 1127 c11 -6 58 -12 105 -14 109 -4 77 12 -40 20 -65 4 -80 3
-65 -6z"/>
<path d="M1426 3295 c4 -8 8 -15 10 -15 2 0 4 7 4 15 0 8 -4 15 -10 15 -5 0
-7 -7 -4 -15z"/>
<path d="M1476 3301 c-4 -7 -5 -15 -2 -18 9 -9 19 4 14 18 -4 11 -6 11 -12 0z"/>
<path d="M3130 2885 c7 -9 15 -13 17 -11 7 7 -7 26 -19 26 -6 0 -6 -6 2 -15z"/>
<path d="M1640 2805 c-11 -13 -10 -14 4 -9 9 3 16 10 16 15 0 13 -6 11 -20 -6z"/>
<path d="M1909 2809 c116 -46 151 -148 160 -474 l6 -210 18 55 c58 179 35 402
-56 528 -38 53 -110 112 -135 111 -12 0 -9 -3 7 -10z"/>
<path d="M2801 2668 c-1 -95 4 -118 25 -118 23 0 26 23 8 66 -9 21 -20 62 -24
89 -7 45 -8 42 -9 -37z"/>
<path d="M3102 2658 c23 -54 43 -96 45 -94 6 6 -54 149 -72 172 -8 10 4 -25
27 -78z"/>
<path d="M3314 2716 c-10 -26 4 -48 28 -44 17 2 23 10 23 28 0 18 -6 26 -23
28 -13 2 -25 -3 -28 -12z m42 -7 c3 -6 1 -16 -5 -22 -9 -9 -10 -7 -5 8 7 18 6
18 -9 6 -9 -7 -17 -9 -17 -4 0 22 24 30 36 12z"/>
<path d="M2680 2546 c0 -122 7 -141 52 -134 22 3 23 6 26 126 2 114 1 123 -15
120 -16 -3 -18 -16 -18 -111 0 -59 -3 -107 -7 -107 -5 0 -8 35 -8 79 0 88 -8
141 -21 141 -5 0 -9 -51 -9 -114z"/>
<path d="M2250 2500 c-8 -5 -11 -12 -7 -16 4 -4 13 -2 19 4 15 15 7 24 -12 12z"/>
<path d="M2287 2503 c-4 -3 -7 -11 -7 -17 0 -6 5 -5 12 2 6 6 9 14 7 17 -3 3
-9 2 -12 -2z"/>
<path d="M3038 2348 c-48 -17 -31 -27 35 -21 42 4 72 1 88 -7 21 -11 22 -11 9
3 -15 15 -74 38 -94 36 -6 0 -23 -5 -38 -11z"/>
<path d="M3332 2303 c37 -2 100 -2 140 0 40 1 10 3 -67 3 -77 0 -110 -1 -73
-3z"/>
<path d="M1501 2083 c1 -139 4 -193 10 -163 11 67 11 370 -1 370 -6 0 -10 -75
-9 -207z"/>
<path d="M1468 2176 c-5 -27 -7 -133 -7 -235 l2 -186 9 145 c4 80 7 186 6 235
-3 82 -4 85 -10 41z"/>
<path d="M3655 1690 c-17 -18 -17 -20 -1 -20 9 0 15 4 12 9 -4 5 0 11 6 14 7
2 10 7 7 11 -3 3 -14 -3 -24 -14z"/>
<path d="M1450 1663 c0 -13 29 -38 35 -31 3 3 -4 13 -15 23 -11 10 -20 13 -20
8z"/>
<path d="M3578 1523 c7 -3 16 -2 19 1 4 3 -2 6 -13 5 -11 0 -14 -3 -6 -6z"/>
</g>
</svg>